HIERARCHY
ROOT Hips
{
	OFFSET 0.00000 0.00000 0.00000
	CHANNELS 6 Xposition Yposition Zposition Zrotation Yrotation Xrotation 
	JOINT LHipJoint
	{
		OFFSET 0 0 0
		CHANNELS 3 Zrotation Yrotation Xrotation
		JOINT LeftHip
		{
			OFFSET 1.56857 -1.73443 1.15205
			CHANNELS 3 Zrotation Yrotation Xrotation
			JOINT LeftKnee
			{
				OFFSET 2.39362 -6.57643 0.00000
				CHANNELS 3 Zrotation Yrotation Xrotation
				JOINT LeftAnkle
				{
					OFFSET 2.50952 -6.89485 0.00000
					CHANNELS 3 Zrotation Yrotation Xrotation
					JOINT LeftToe
					{
						OFFSET 0.17171 -0.47178 1.88682
						CHANNELS 3 Zrotation Yrotation Xrotation
						End Site
						{
							OFFSET 0.00000 -0.00000 0.98146
						}
					}
				}
			}
		}
	}
	JOINT RHipJoint
	{
		OFFSET 0 0 0
		CHANNELS 3 Zrotation Yrotation Xrotation
		JOINT RightHip
		{
			OFFSET -1.28153 -1.73443 1.15205
			CHANNELS 3 Zrotation Yrotation Xrotation
			JOINT RightKnee
			{
				OFFSET -2.26861 -6.23296 0.00000
				CHANNELS 3 Zrotation Yrotation Xrotation
				JOINT RightAnkle
				{
					OFFSET -2.54143 -6.98254 0.00000
					CHANNELS 3 Zrotation Yrotation Xrotation
					JOINT RightToe
					{
						OFFSET -0.23309 -0.64041 1.93119
						CHANNELS 3 Zrotation Yrotation Xrotation
						End Site
						{
							OFFSET -0.00000 -0.00000 1.02013
						}
					}
				}
			}
		}
	}
	JOINT lowerback
	{
		OFFSET 0 0 0
		CHANNELS 3 Zrotation Yrotation Xrotation
		JOINT Chest
		{
			OFFSET -0.07096 2.10460 -0.27878
			CHANNELS 3 Zrotation Yrotation Xrotation
			JOINT Chest2
			{
				OFFSET -0.00826 2.13662 -0.08279
				CHANNELS 3 Zrotation Yrotation Xrotation
				JOINT lowerneck
				{
					OFFSET 0 0 0
					CHANNELS 3 Zrotation Yrotation Xrotation
					JOINT Neck
					{
						OFFSET 0.03239 1.77799 0.24435
						CHANNELS 3 Zrotation Yrotation Xrotation
						JOINT Head
						{
							OFFSET 0.01026 1.74194 -0.49664
							CHANNELS 3 Zrotation Yrotation Xrotation
							End Site
							{
								OFFSET 0.00170 1.83057 -0.19653
							}
						}
					}
				}
				JOINT LeftCollar
				{
					OFFSET 0 0 0
					CHANNELS 3 Zrotation Yrotation Xrotation
					JOINT LeftShoulder
					{
						OFFSET 3.19178 1.35907 -0.31412
CHANNELS 3 Zrotation Xrotation Yrotation
						JOINT LeftElbow
						{
OFFSET 0 -4.852470 -0.000000
CHANNELS 3 Zrotation Xrotation Yrotation
							JOINT LeftWrist
							{
OFFSET 0 -3.555840 0.000000
CHANNELS 3 Zrotation Xrotation Yrotation
								JOINT lhand
								{
									OFFSET 0 0 0
CHANNELS 3 Zrotation Xrotation Yrotation
									JOINT LFingers
									{
OFFSET 0 -0.693200 0.000000
CHANNELS 3 Zrotation Xrotation Yrotation
										End Site
										{
OFFSET 0 -0.558880 0.000000
										}
									}
								}
								JOINT LThumb
								{
OFFSET 0 0.000000 0.000000
CHANNELS 3 Zrotation Xrotation Yrotation
									End Site
									{
OFFSET 0 -0.567410 0.567410
									}
								}
							}
						}
					}
				}
				JOINT RightCollar
				{
					OFFSET 0 0 0
					CHANNELS 3 Zrotation Yrotation Xrotation
					JOINT RightShoulder
					{
						OFFSET -3.28999 1.24191 -0.26899
CHANNELS 3 Zrotation Xrotation Yrotation
						JOINT RightElbow
						{
OFFSET 0 -4.644620 0.000000
CHANNELS 3 Zrotation Xrotation Yrotation
							JOINT RightWrist
							{
OFFSET 0 -3.407030 0.000000
CHANNELS 3 Zrotation Xrotation Yrotation
								JOINT rhand
								{
									OFFSET 0 0 0
CHANNELS 3 Zrotation Xrotation Yrotation
									JOINT RFingers
									{
OFFSET 0 -0.619580 0.000000
CHANNELS 3 Zrotation Xrotation Yrotation
										End Site
										{
OFFSET 0 -0.499520 0.000000
										}
									}
								}
								JOINT RThumb
								{
OFFSET 0 0.000000 0.000000
CHANNELS 3 Zrotation Xrotation Yrotation
									End Site
									{
OFFSET 0 -0.507150 0.507150
									}
								}
							}
						}
					}
				}
			}
		}
	}
}
MOTION
Frames: 4
Frame Time: 0.008333333333333333
43.120047 16.215452 -7.979845 -351.759432 19.886779 -362.364028 0.000000 0.000000 0.000000 -19.088187 -7.263205 -11.258940 1.799121 8.434486 24.041750 0.187428 -3.002171 -7.690888 0.618199 -5.031772 -13.999195 0.000000 0.000000 0.000000 31.614400 0.903100 24.230500 -0.512700 -4.589700 12.741900 0.238500 22.037200 -13.672500 -3.727200 -11.788300 34.987200 -4.706613 3.960197 9.149349 -3.207440 4.802965 3.206040 -1.202980 2.409121 -1.886178 -6.908465 -8.325236 -17.834192 10.320959 -13.297564 30.135790 2.943497 -5.101210 14.627573 0.000000 0.000000 0.000000 7.692552 7.911037 -19.572531 10.310229 -17.223358 1.565623 3.247185 32.426234 23.235292 0.000000 0.000000 0.000000 -7.125000 0.000000 0.000000 -15.992669 7.429927 -14.378678 0.000000 0.000000 0.000000 -4.585592 -6.159164 36.211417 -24.331610 -35.511801 -7.898852 -20.005201 10.301809 30.659824 0.000000 0.000000 0.000000 7.125000 0.000000 0.000000 13.686874 61.710652 -5.624308
43.420848 16.271259 -7.622269 -349.098571 17.753305 -361.981023 0.000000 0.000000 0.000000 -22.919091 -5.578796 -8.794986 1.719552 8.255604 23.493336 0.302173 -2.517516 -9.815475 0.516445 -4.595688 -12.760743 0.000000 0.000000 0.000000 31.614400 0.903100 24.230500 -0.512700 -4.589700 12.741900 0.238500 22.037200 -13.672500 -3.727200 -11.788300 34.987200 -7.321700 4.108195 9.577527 -3.764902 4.721303 3.363653 -0.363990 2.363872 -2.103804 -7.818676 -8.394809 -18.074696 10.447885 -13.158295 30.184265 3.167409 -5.126640 14.774835 0.000000 0.000000 0.000000 9.009588 5.622204 -21.724758 10.973661 -18.247696 1.767790 7.891196 25.930471 22.773547 0.000000 0.000000 0.000000 -7.125000 0.000000 0.000000 -13.154755 7.498335 -11.645276 0.000000 0.000000 0.000000 -4.452864 -4.448451 35.626350 -22.376845 -33.399701 -6.792379 -18.996537 10.015326 33.202472 0.000000 0.000000 0.000000 7.125000 0.000000 0.000000 16.850081 63.905639 -7.830609
43.671658 16.343780 -7.270695 -347.925311 15.697739 -361.736903 0.000000 0.000000 0.000000 -24.836024 -4.105754 -6.796167 1.596776 7.969872 22.622762 0.422129 -2.091851 -11.726329 0.332269 -3.699964 -10.234482 0.000000 0.000000 0.000000 9.875847 6.025742 6.700598 -10.422177 -17.637303 60.886095 0.008599 3.628270 4.721456 -0.993586 -6.270310 17.595440 -9.360836 3.547538 9.209725 -3.875223 3.853981 3.648011 0.778412 1.904807 -1.670316 -7.068257 -7.812578 -18.470388 9.686324 -12.218064 29.690302 2.889881 -4.753846 14.391417 0.000000 0.000000 0.000000 9.927481 3.334600 -20.722622 11.817684 -19.530230 2.041260 11.414204 20.387567 22.588472 0.000000 0.000000 0.000000 -7.125000 0.000000 0.000000 -10.965358 7.325746 -9.661304 0.000000 0.000000 0.000000 -3.299440 -4.282596 33.237486 -19.312735 -29.803868 -5.186167 -18.444559 14.276311 32.692281 0.000000 0.000000 0.000000 7.125000 0.000000 0.000000 17.034450 63.273500 -7.666735
43.897159 16.457276 -6.926400 -348.165726 14.367525 -362.006781 0.000000 0.000000 0.000000 -25.200119 -2.915225 -4.464926 1.423366 7.543784 21.337223 0.500748 -1.593768 -12.911422 0.392928 -4.022986 -11.141563 0.000000 0.000000 0.000000 9.462514 5.254283 0.087168 -12.022523 -18.398795 66.058697 0.022124 2.675602 1.273709 -2.560942 -9.917540 28.736558 -9.817412 2.989973 9.466980 -3.616198 3.051208 3.770258 1.385609 1.495230 -1.650836 -6.381009 -7.499438 -18.815219 9.100348 -11.769603 29.550741 2.610263 -4.562457 14.250336 0.000000 0.000000 0.000000 11.600354 1.246456 -22.099031 12.787678 -20.974922 2.377030 14.434565 13.324519 22.344279 0.000000 0.000000 0.000000 -7.125000 0.000000 0.000000 -9.067674 7.218477 -7.960241 0.000000 0.000000 0.000000 -4.457937 -1.493193 35.244886 -19.389800 -29.897302 -5.225155 -17.123214 13.663906 34.254362 0.000000 0.000000 0.000000 7.125000 0.000000 0.000000 19.973976 64.384173 -9.567335
